<svg width="100" height="100" viewBox="0 0 100 100" fill="none" xmlns="http://www.w3.org/2000/svg">
<g clip-path="url(#clip0_140_2648)">
<path d="M82.7532 66.7971L81.2544 66.4959C80.1909 66.2822 79.4257 65.3479 79.4257 64.2631V62.1035H69.622V64.3176C69.622 65.4023 68.8567 66.3365 67.7933 66.5504L66.5659 66.7971V75.0408H82.7532V66.7971Z" fill="#FED9A8"/>
<path d="M75.1641 62.1035V66.1268C75.1641 67.2115 75.9291 68.1457 76.9928 68.3596L82.7533 69.5063V66.7971L81.2545 66.4959C80.191 66.2822 79.4258 65.3479 79.4258 64.2631V62.1035H75.1641Z" fill="#F4C892"/>
<path d="M82.752 66.7969L78.3059 67.965C75.9156 68.593 73.4039 68.593 71.0137 67.965L66.5676 66.7969L57.0039 69.6127C52.4477 70.9543 49.3193 75.1363 49.3193 79.8859V97.3615H100V79.8859C100 75.1363 96.8717 70.9541 92.3154 69.6127L82.752 66.7969Z" fill="#4D4A5B"/>
<path d="M92.3153 69.6127L82.7517 66.7969L77.1431 68.2705L81.7021 69.6129C86.2583 70.9543 89.3866 75.1365 89.3866 79.8861V97.3617H99.9999V79.8861C99.9999 75.1363 96.8716 70.9541 92.3153 69.6127Z" fill="#444251"/>
<path d="M47.3201 45.2366C39.5896 26.867 26.3599 27.8782 26.1249 27.8977C25.89 27.8782 12.6601 26.867 4.92982 45.2366C1.16595 54.1803 0.228645 61.9342 0.00559854 65.7977C-0.0820968 67.3161 0.868099 68.701 2.3181 69.1604L26.1249 76.6998L49.9318 69.1604C51.3818 68.7012 52.332 67.3163 52.2443 65.7977C52.0212 61.9342 51.0837 54.1803 47.3201 45.2366Z" fill="#D4FFF8"/>
<path d="M52.2442 65.7977C52.0212 61.934 51.0839 54.1801 47.32 45.2366C39.5896 26.867 26.3599 27.8782 26.1249 27.8977C26.0313 27.8899 23.8745 27.726 20.8257 28.6914C25.4302 30.1495 32.0708 34.1848 36.7216 45.2366C40.4853 54.1803 41.4228 61.9342 41.6458 65.7977C41.7335 67.3161 40.7833 68.7012 39.3333 69.1604L20.8257 75.0215L26.1249 76.6996L49.9317 69.1602C51.3815 68.7012 52.3317 67.3163 52.2442 65.7977Z" fill="#C6F4EB"/>
<path d="M42.2853 71.0854L33.533 68.5084V68.508L32.1611 68.2322C31.1877 68.0365 30.4873 67.1814 30.4873 66.1885V64.2119H21.5139V66.2385C21.5139 67.2314 20.8135 68.0865 19.84 68.2822L18.7166 68.508V68.5084L9.96426 71.0854C5.79395 72.3133 2.93066 76.1412 2.93066 80.4887V97.3717H49.3193V80.4887C49.3189 76.1412 46.4557 72.3133 42.2853 71.0854Z" fill="#FED9A8"/>
<path d="M42.2855 71.0854L33.5332 68.5084V68.508L32.1613 68.2322C31.1879 68.0365 30.4875 67.1814 30.4875 66.1885V64.2119H26.125V66.6154C26.125 68.2943 27.2307 69.7725 28.8412 70.2467L31.6897 71.0854C35.86 72.3133 38.7232 76.1412 38.7232 80.4887V97.3717H49.3191V80.4887C49.3191 76.1412 46.4559 72.3133 42.2855 71.0854Z" fill="#F4C892"/>
<path d="M26.125 37.127C29.2543 37.127 31.791 34.5902 31.791 31.4609C31.791 28.3317 29.2543 25.7949 26.125 25.7949C22.9957 25.7949 20.459 28.3317 20.459 31.4609C20.459 34.5902 22.9957 37.127 26.125 37.127Z" fill="#FF901D"/>
<path d="M41.331 54.8139H38.6606V48.2383H41.331C42.4993 48.2383 43.4466 49.1855 43.4466 50.3539V52.6982C43.4466 53.8668 42.4993 54.8139 41.331 54.8139Z" fill="#F4CFA6"/>
<path d="M10.9193 54.8139H13.5896V48.2383H10.9193C9.75098 48.2383 8.80371 49.1855 8.80371 50.3539V52.6982C8.80371 53.8668 9.75098 54.8139 10.9193 54.8139Z" fill="#F4CFA6"/>
<path d="M26.125 65.2047C18.8137 65.2047 12.8867 59.2777 12.8867 51.9664V48.2461C12.8867 40.9348 18.8137 35.0078 26.125 35.0078C33.4363 35.0078 39.3633 40.9348 39.3633 48.2461V51.9664C39.3631 59.2777 33.4361 65.2047 26.125 65.2047Z" fill="#FED9A8"/>
<path d="M31.7905 36.2822V54.3629C31.7905 58.8482 29.5577 62.8098 26.145 65.2043C33.447 65.1934 39.363 59.2711 39.363 51.9666V48.2463C39.363 42.9629 36.2665 38.4055 31.7905 36.2822Z" fill="#F4CFA2"/>
<path d="M41.6955 47.4764V47.275C41.6955 38.6754 34.7242 31.7041 26.1246 31.7041C17.525 31.7041 10.5537 38.6754 10.5537 47.275V47.4764C10.5537 47.8973 10.8949 48.2387 11.316 48.2387H13.3176C13.8502 48.2387 14.3326 47.9244 14.5477 47.4371L15.6619 43.2549C16.049 41.802 17.8154 41.248 18.9641 42.2182C21.8627 44.6662 26.9492 48.2385 31.9504 48.2385H40.9334C41.3543 48.2385 41.6955 47.8973 41.6955 47.4764Z" fill="#FF901D"/>
<path d="M26.1251 31.7041C24.3907 31.7041 22.7245 31.992 21.1665 32.5152C26.971 34.5193 31.1419 40.0271 31.1419 46.5127V48.2061C31.4116 48.2262 31.6813 48.2385 31.9509 48.2385H40.9339C41.3548 48.2385 41.6962 47.8973 41.6962 47.4762V47.2748C41.6958 38.6756 34.7245 31.7041 26.1251 31.7041Z" fill="#FF6D3A"/>
<path d="M42.1353 81.6066C42.1353 81.1709 41.9978 80.7453 41.7382 80.3953C40.1538 78.2586 37.6142 76.873 34.7497 76.873C32.061 76.873 29.6585 78.0934 28.064 80.0102C27.0503 81.2287 25.1997 81.2287 24.186 80.0102C22.5915 78.0934 20.189 76.873 17.5003 76.873C14.6358 76.873 12.0962 78.2586 10.5118 80.3953C10.2522 80.7453 10.1147 81.1709 10.1147 81.6066V97.3715H42.1354V81.6066H42.1353Z" fill="#FFFCFD"/>
<path d="M41.738 80.3953C40.1536 78.2586 37.614 76.873 34.7495 76.873C32.754 76.873 30.9167 77.5465 29.4497 78.6768C30.0888 79.1691 30.6587 79.7471 31.1395 80.3953C31.3991 80.7453 31.5366 81.1709 31.5366 81.6066V97.3715H42.1351V81.6066C42.1351 81.1711 41.9976 80.7453 41.738 80.3953Z" fill="#F2F2F2"/>
<path d="M59.4544 97.3616V91.3462V81.3671C59.4544 80.5325 58.7778 79.856 57.9433 79.856C57.1087 79.856 56.4321 80.5325 56.4321 81.3671V91.3462V97.3616H59.4544Z" fill="#3A3847"/>
<path d="M92.6678 97.3616V81.3671C92.6678 80.5325 91.9912 79.856 91.1566 79.856C90.3221 79.856 89.6455 80.5325 89.6455 81.3671V97.3616H92.6678Z" fill="#3A3847"/>
<path d="M90.3315 52.6627H87.3853V45.8711H90.3315C91.5384 45.8711 92.5167 46.8494 92.5167 48.0563V50.4777C92.5165 51.6844 91.5382 52.6627 90.3315 52.6627Z" fill="#F4CFA6"/>
<path d="M58.9874 52.6627H61.9337V45.8711H58.9874C57.7806 45.8711 56.8022 46.8494 56.8022 48.0563V50.4777C56.8022 51.6844 57.7806 52.6627 58.9874 52.6627Z" fill="#F4CFA6"/>
<path d="M74.6594 63.3947C67.108 63.3947 60.9863 57.273 60.9863 49.7217V45.8791C60.9863 38.3277 67.108 32.2061 74.6594 32.2061C82.2107 32.2061 88.3324 38.3277 88.3324 45.8791V49.7217C88.3324 57.273 82.2109 63.3947 74.6594 63.3947Z" fill="#FFDFB8"/>
<path d="M80.7603 33.6426V52.5531C80.7603 57.0312 78.5345 60.9869 75.1313 63.3826C82.464 63.1336 88.3327 57.1148 88.3327 49.7215V45.8789C88.3327 40.5205 85.2487 35.8848 80.7603 33.6426Z" fill="#F4CFA2"/>
<path d="M56.5761 2.62793C53.9022 2.62793 51.522 3.88398 49.9927 5.83828C48.4634 3.88398 46.0831 2.62793 43.4093 2.62793C38.7948 2.62793 35.0542 6.36855 35.0542 10.983C35.0542 21.4805 49.9927 27.326 49.9927 27.326C49.9927 27.326 64.9312 21.4805 64.9312 10.983C64.9312 6.36855 61.1903 2.62793 56.5761 2.62793Z" fill="#FF6991"/>
<path d="M56.5762 2.62793C54.6494 2.62793 52.8766 3.28203 51.4635 4.37773C52.0996 4.7209 52.6926 5.14902 53.2264 5.65254C53.2621 5.68457 53.2961 5.71895 53.3313 5.75195C53.3613 5.78125 53.3914 5.81035 53.4211 5.84023C53.5941 6.01055 53.76 6.18945 53.9131 6.38145C54.3629 6.92227 54.752 7.52852 55.0635 8.19609C58.3604 15.2623 53.1033 23.4863 50.1807 27.2498C51.8984 26.5352 64.9316 20.7891 64.9316 10.9834C64.9313 6.36855 61.1904 2.62793 56.5762 2.62793Z" fill="#FF507E"/>
<path d="M66.5674 66.7969L62.4785 74.0168C62.3729 74.2033 62.3891 74.4348 62.5194 74.6049L74.6598 93.4088L66.5674 66.7969Z" fill="#666277"/>
<path d="M89.3241 45.871H90.3315C90.6519 45.871 90.9552 45.9417 91.2294 46.0655V42.5905C91.2294 34.7241 84.8524 28.3472 76.986 28.3472H72.3327C64.4663 28.3472 58.0894 34.7241 58.0894 42.5905V46.0655C58.3636 45.9417 58.6669 45.871 58.9872 45.871H59.9946H60.9864C60.9874 44.2075 61.2856 42.6138 61.8306 41.1396C67.8765 39.4265 74.0214 44.1017 80.704 44.1017C84.0417 44.1017 86.32 43.3548 87.8608 42.4413L87.8964 42.4409C88.1804 43.537 88.3317 44.6864 88.3325 45.871H89.3241Z" fill="#4D4A5B"/>
<path d="M89.3242 45.871C89.3244 45.871 89.3244 45.871 89.3242 45.871H90.3316C90.6519 45.871 90.9553 45.9417 91.2295 46.0655V42.5905C91.2295 34.7241 84.8525 28.3472 76.9861 28.3472H72.3328C71.3135 28.3472 70.3199 28.4564 69.3613 28.6599C75.801 30.0269 80.6332 35.7435 80.6332 42.5905V44.1001C80.6568 44.1003 80.6803 44.1017 80.7039 44.1017C84.0416 44.1017 86.3199 43.3548 87.8607 42.4413L87.8963 42.4409C88.1803 43.537 88.3316 44.6864 88.3324 45.871H89.3242Z" fill="#3A3847"/>
<path d="M82.752 66.7969L78.2832 67.9709C75.9078 68.5949 73.4115 68.5949 71.0361 67.9709L66.5674 66.7969L74.6596 93.409L82.752 66.7969Z" fill="#FFFCFD"/>
<path d="M76.2116 75.6631H73.097L72.0903 82.9369L74.6595 90.4453L77.2282 82.9383L76.2116 75.6631Z" fill="#F33A3A"/>
<path d="M74.6596 72.2861L71.3193 73.8752L72.9529 76.7053H76.3662L78 73.8752L74.6596 72.2861Z" fill="#E25959"/>
<path d="M82.7521 66.7969L86.8409 74.0168C86.9466 74.2033 86.9304 74.4348 86.8001 74.6049L74.6597 93.4088L82.7521 66.7969Z" fill="#666277"/>
<path d="M76.2116 75.6631H73.097L71.8979 84.3272L74.6595 93.409L77.422 84.3244L76.2116 75.6631Z" fill="#F33A3A"/>
<path d="M74.6596 70.8252L71.3193 73.875L72.9529 76.7051H76.3662L78 73.875L74.6596 70.8252Z" fill="#E25959"/>
</g>
<defs>
<clipPath id="clip0_140_2648">
<rect width="100" height="100" fill="white"/>
</clipPath>
</defs>
</svg>
