<svg width="70" height="70" viewBox="0 0 70 70" fill="none" xmlns="http://www.w3.org/2000/svg">
<g clip-path="url(#clip0_140_3028)">
<path d="M46.2642 43.272L41.7832 47.753L47.7578 53.7276L52.2388 49.2466L46.2642 43.272Z" fill="#E25959"/>
<path d="M47.7578 41.7783L44.7705 44.7656L50.7451 50.7403L53.7325 47.753L47.7578 41.7783Z" fill="#E25959"/>
<path d="M58.6244 67.5065C58.6236 67.5073 49.2543 55.2299 49.2543 55.2299L52.242 49.2544L68.1436 68.1437C65.6683 70.6189 61.6554 70.6189 59.1802 68.1437C58.9778 67.9413 58.7937 67.7278 58.6244 67.5065Z" fill="#884969"/>
<path d="M62.1681 65.1559C61.9657 64.9535 61.7816 64.74 61.6123 64.5188C61.6115 64.5196 52.2422 52.2421 52.2422 52.2421V49.2544H55.2299L67.5073 58.6238C67.7277 58.794 67.9412 58.9781 68.1436 59.1805C70.6188 61.6557 70.6188 65.6686 68.1436 68.1438C67.3187 68.9688 64.6433 67.631 62.1681 65.1559Z" fill="#A6577E"/>
<path d="M27.1129 54.2253C12.139 54.2253 0.000236511 42.0866 0.000236511 27.1127C0.000236511 12.1388 12.139 0 27.1129 0C42.0868 0 54.2256 12.1388 54.2256 27.1127C54.2256 42.0866 42.0868 54.2253 27.1129 54.2253Z" fill="#E25959"/>
<path d="M27.1128 4.22559V50.0002C14.4725 50.0002 4.22547 39.7532 4.22547 27.1129C4.22547 14.4726 14.4725 4.22559 27.1128 4.22559Z" fill="#FFF7EB"/>
<path d="M8.45071 27.1129C8.45071 14.4726 16.8059 4.22559 27.1127 4.22559C39.753 4.22559 50 14.4726 50 27.1129C50 39.7532 39.753 50.0002 27.1127 50.0002C16.8059 50.0002 8.45071 39.7532 8.45071 27.1129Z" fill="#FFF7EB"/>
<path d="M46.2667 52.2421L49.2544 49.2544L52.2422 52.2421L49.2544 55.2299C48.4294 56.055 47.0918 56.055 46.2667 55.2299C45.4416 54.4048 45.4416 53.0672 46.2667 52.2421Z" fill="#E25959"/>
<path d="M49.2543 52.2422C48.4293 51.4172 48.4293 50.0796 49.2543 49.2545L52.2421 46.2668C53.0672 45.4417 54.4048 45.4417 55.2298 46.2668C56.0549 47.0918 56.0549 48.4294 55.2298 49.2545L52.2421 52.2422C51.417 53.0673 50.0793 53.0673 49.2543 52.2422Z" fill="#E25959"/>
<path d="M21.1315 16.1616C21.4974 16.1616 21.8563 16.1896 22.2087 16.2382L27.1128 41.4343C27.1128 41.4343 13.31 34.0825 13.31 23.9732C13.31 19.6589 16.8118 16.1616 21.1315 16.1616Z" fill="#F53827"/>
<path d="M17.5352 23.9732C17.5352 20.0273 19.5683 16.7667 22.2088 16.2382C24.1688 16.5088 25.8967 17.5033 27.1127 18.9446C28.5475 17.2442 30.6931 16.1616 33.094 16.1616C37.4137 16.1616 40.9155 19.6589 40.9155 23.9732C40.9155 34.0825 27.1127 41.4343 27.1127 41.4343C27.1127 41.4343 17.5352 34.0825 17.5352 23.9732Z" fill="#FC5132"/>
</g>
<defs>
<clipPath id="clip0_140_3028">
<rect width="70" height="70" fill="white" transform="matrix(-1 0 0 1 70 0)"/>
</clipPath>
</defs>
</svg>
