<svg width="70" height="70" viewBox="0 0 70 70" fill="none" xmlns="http://www.w3.org/2000/svg">
<g clip-path="url(#clip0_140_3152)">
<path fill-rule="evenodd" clip-rule="evenodd" d="M30.0047 24.627C28.228 25.9953 26.6189 27.6437 25.2494 29.5602C19.5719 37.4981 19.548 47.7847 24.3951 55.5946C24.3951 55.5986 24.399 55.6027 24.399 55.6067C25.8444 57.9353 27.7249 60.0437 30.0167 61.8041C30.0246 61.8081 30.0327 61.8162 30.0406 61.8201C30.2323 61.9722 30.4319 62.1163 30.6315 62.2602C41.1281 69.802 55.737 67.3855 63.2631 56.8669C70.0266 47.4126 68.765 34.6295 60.8197 26.6636C59.9213 25.7674 58.9432 24.9312 57.8812 24.167C56.8192 23.4028 55.7132 22.7426 54.5753 22.1825C49.2891 19.5658 43.3361 19.1257 37.8943 20.6622C37.8583 20.6742 37.6508 20.7141 37.6148 20.7222L37.7666 25.2913L43.2445 26.9437C46.8498 26.7157 50.5669 27.6879 53.733 29.9645C61.0354 35.2099 62.7124 45.3923 57.478 52.7101C52.8665 59.1637 44.4222 61.2322 37.483 58.0394C36.5488 57.6114 35.6424 57.0872 34.7801 56.4631C33.5424 55.5789 32.4724 54.5507 31.562 53.4184C27.1062 47.857 26.6831 39.799 31.035 33.7174C32.2527 32.013 33.7379 30.6127 35.3949 29.5365C35.4908 29.4725 35.9858 29.2004 36.0856 29.1364L34.7481 24.7313L30.1565 24.4993C30.1205 24.523 30.0406 24.599 30.0047 24.627Z" fill="#FECE85"/>
<path fill-rule="evenodd" clip-rule="evenodd" d="M17.9787 3.34961C17.284 3.34961 17.2281 3.6657 16.8408 4.24184L14.3733 7.7227C13.994 8.32289 14.0019 8.47492 14.4411 9.08701L19.5437 16.2047L23.3047 18.6293L27.2214 16.2047L32.328 9.08701C32.7632 8.47492 32.7752 8.32289 32.3958 7.7227L29.9284 4.24184C29.5411 3.6657 29.4852 3.34961 28.7905 3.34961H28.1158H27.2255H23.3847H19.5438H18.6535H17.9787Z" fill="#2ED1E2"/>
<path fill-rule="evenodd" clip-rule="evenodd" d="M23.3847 15.8887C22.075 15.8887 20.7934 15.9967 19.5438 16.2048C8.45633 18.0372 0 27.6916 0 39.3225C0 52.2657 10.4686 62.7563 23.3847 62.7563C25.6964 62.7563 27.9043 62.4281 30.0163 61.804C27.7245 60.0436 25.8441 57.935 24.3987 55.6066C24.3987 55.6026 24.3947 55.5985 24.3947 55.5945C24.0234 55.6186 23.7639 55.6265 23.3847 55.6265C14.4013 55.6265 7.11484 48.3288 7.11484 39.3225C7.11484 30.3203 14.4014 23.0225 23.3847 23.0225C25.8002 23.0225 28.096 23.5507 30.1561 24.4989C32.4797 25.5632 34.508 27.1636 36.0851 29.136C38.3171 31.9287 39.6505 35.4695 39.6505 39.3225C39.6505 45.376 36.4524 50.6053 31.5615 53.418C32.4718 54.5503 33.5419 55.5785 34.7796 56.4627C35.642 57.0868 36.5483 57.611 37.4825 58.0391C43.0802 53.758 46.7693 46.9244 46.7693 39.3224C46.7693 34.7773 45.4796 30.5363 43.2439 26.9433C41.7506 24.5468 39.8422 22.4382 37.6143 20.7218C34.6318 18.4333 31.0864 16.8409 27.2215 16.2048C25.9759 15.9968 24.6903 15.8887 23.3847 15.8887Z" fill="#FECE85"/>
<path fill-rule="evenodd" clip-rule="evenodd" d="M54.5669 13.4161L54.5748 22.1822L56.4434 26.2272L60.8193 26.6633L69.1039 23.8587C69.8146 23.6186 69.9104 23.4986 69.9503 22.7904L69.9703 18.5213C69.9903 17.8291 70.13 17.5371 69.563 17.129L69.016 16.7369L68.2933 16.2168L65.1711 13.9762L62.0488 11.7317L61.3222 11.2116L60.7752 10.8195C60.2121 10.4114 59.9807 10.6395 59.3339 10.8796L55.3056 12.2678C54.6467 12.5359 54.5669 12.6639 54.5669 13.4161Z" fill="#2ED1E2"/>
<path fill-rule="evenodd" clip-rule="evenodd" d="M41.8066 66.521C49.8916 67.3692 58.1883 63.9604 63.2629 56.8666C70.0263 47.4122 68.7647 34.6292 60.8155 26.6633C59.9212 25.7671 58.943 24.9309 57.8809 24.1666C56.8189 23.4025 55.713 22.7423 54.5751 22.1822C54.2717 22.0301 53.9642 21.886 53.6567 21.75C54.2796 24.6348 54.6788 27.6714 54.8225 30.8162C61.1908 36.2575 62.4404 45.7719 57.4776 52.7095C55.1459 55.9703 51.84 58.1109 48.2427 59.0191C46.3901 62.0279 44.2182 64.5725 41.8066 66.521Z" fill="#FDB440"/>
<path fill-rule="evenodd" clip-rule="evenodd" d="M17.4238 61.9879C19.3244 62.4881 21.3246 62.7562 23.3848 62.7562C25.6965 62.7562 27.9044 62.428 30.0164 61.8039C27.7246 60.0435 25.8442 57.9349 24.3988 55.6065C24.3988 55.6025 24.3948 55.5984 24.3948 55.5944C24.0235 55.6185 23.764 55.6264 23.3848 55.6264C22.9456 55.6264 22.5104 55.6065 22.0832 55.5745C20.7178 57.9989 19.1487 60.1595 17.4238 61.9879ZM27.4653 23.5385C28.3955 23.7786 29.2979 24.1026 30.1563 24.4987C32.48 25.5629 34.5082 27.1634 36.0854 29.1358C38.3173 31.9284 39.6507 35.4693 39.6507 39.3223C39.6507 45.3758 36.4526 50.605 31.5618 53.4177C32.4721 54.55 33.5421 55.5783 34.7799 56.4625C35.6423 57.0866 36.5486 57.6108 37.4828 58.0388C43.0805 53.7578 46.7696 46.9241 46.7696 39.3222C46.7696 34.7771 45.4799 30.5361 43.2441 26.9431C41.7509 24.5466 39.8424 22.4379 37.6146 20.7216C34.6321 18.433 31.0867 16.8407 27.2218 16.2045C26.7746 16.1285 26.3234 16.0685 25.8643 16.0205C26.5629 18.4053 27.106 20.9219 27.4653 23.5385Z" fill="#FDB440"/>
<path fill-rule="evenodd" clip-rule="evenodd" d="M16.8407 4.24184L14.3732 7.71873V7.7227C14.2655 7.89469 14.1855 8.03072 14.1416 8.15486H32.6273C32.5835 8.03086 32.5036 7.89482 32.3957 7.7227L29.9284 4.24184C29.5411 3.6657 29.4851 3.34961 28.7905 3.34961H28.1158H27.2255H23.3846H19.5438H18.6535H17.9788C17.5315 3.34961 17.3479 3.48168 17.1683 3.72969C17.0724 3.86572 16.9766 4.03375 16.8408 4.23787L16.8407 4.24184Z" fill="#99E6FC"/>
<path fill-rule="evenodd" clip-rule="evenodd" d="M54.8667 12.4838L69.292 23.7906C69.5476 23.6946 69.6993 23.6105 69.7952 23.4785C69.8989 23.3304 69.9309 23.1264 69.9509 22.7904L69.9708 18.5213C69.9908 17.8291 70.1305 17.5371 69.5636 17.129L69.0165 16.7369L68.2938 16.2168L65.1716 13.9762L62.0494 11.7317L61.3227 11.2116L60.7757 10.8195C60.2127 10.4114 59.9812 10.6395 59.3344 10.8796L55.3058 12.2678C55.1142 12.3438 54.9705 12.4119 54.8667 12.4838Z" fill="#99E6FC"/>
<path fill-rule="evenodd" clip-rule="evenodd" d="M24.6904 3.34961L27.0141 6.93055C27.3374 7.49068 27.3774 7.69467 27.1139 8.15486H32.6276C32.5838 8.03086 32.5039 7.89482 32.396 7.7227L29.9287 4.24184C29.5413 3.6657 29.4854 3.34961 28.7908 3.34961H28.1161H27.2257H24.6904Z" fill="#2ED1E2"/>
<path fill-rule="evenodd" clip-rule="evenodd" d="M26.9463 8.42262L22.0234 15.9245C22.4746 15.9004 22.9297 15.8886 23.3849 15.8886C24.6945 15.8886 25.9761 15.9926 27.2257 16.2007L32.3283 9.08693C32.3283 9.08693 32.3283 9.08693 32.3283 9.08297C32.3323 9.079 32.3404 9.07094 32.3443 9.06301C32.6438 8.64287 32.7317 8.44285 32.6278 8.15479H27.114C27.0701 8.23463 27.0142 8.32268 26.9463 8.42262Z" fill="#00B1CD"/>
<path fill-rule="evenodd" clip-rule="evenodd" d="M57.8807 24.1668C58.9428 24.927 59.925 25.7631 60.8192 26.6634L69.1039 23.8588C69.1717 23.8347 69.2356 23.8108 69.2916 23.7908L65.6464 20.9341C65.5426 20.9821 65.4108 21.0342 65.2472 21.0861L57.3179 23.7707C57.5054 23.8988 57.693 24.0308 57.8807 24.1668Z" fill="#00B1CD"/>
<path fill-rule="evenodd" clip-rule="evenodd" d="M66.0977 20.0175C66.0657 20.5656 66.0018 20.7616 65.6465 20.9336L69.2917 23.7904C69.5432 23.6944 69.6949 23.6103 69.7907 23.4823L69.7947 23.4784C69.8984 23.3303 69.9304 23.1263 69.9504 22.7903L69.9703 18.5212C69.9903 17.829 70.13 17.537 69.5631 17.1289L69.0161 16.7368L68.2934 16.2167L65.794 14.4243C66.2612 14.7965 66.1333 15.0925 66.1173 15.7487L66.0977 20.0175Z" fill="#2ED1E2"/>
</g>
<defs>
<clipPath id="clip0_140_3152">
<rect width="70" height="70" fill="white"/>
</clipPath>
</defs>
</svg>
