<svg width="100" height="100" viewBox="0 0 100 100" fill="none" xmlns="http://www.w3.org/2000/svg">
<g clip-path="url(#clip0_140_2722)">
<path fill-rule="evenodd" clip-rule="evenodd" d="M40.4395 54.4316H59.5664C60.8398 54.4316 61.8809 55.4727 61.8809 56.7461V82.6563C61.8809 83.9297 60.8398 84.9707 59.5664 84.9707H40.4395C39.166 84.9707 38.1191 83.9297 38.1191 82.6563V56.7461C38.1191 55.4727 39.166 54.4316 40.4395 54.4316Z" fill="#FED9A8"/>
<path fill-rule="evenodd" clip-rule="evenodd" d="M61.8809 59.5195V62.3711C58.3711 64.4023 54.3066 65.5645 50 65.5645C48.0742 65.5645 46.1914 65.332 44.3926 64.8887C42.6699 64.4688 41.0273 65.7578 41.0273 67.5352V69.5449H38.1211V59.5195C41.5371 61.8066 45.6289 63.1406 50.002 63.1406C54.3848 63.1406 58.4766 61.8066 61.8809 59.5195Z" fill="#F4CFA2"/>
<path fill-rule="evenodd" clip-rule="evenodd" d="M67.2461 72.1797L84.4863 78.0762C88.084 79.3047 90.3926 82.5391 90.3926 86.3418V96.5449C90.3926 98.4434 88.8418 100 86.9375 100H13.0625C11.1641 100 9.60742 98.4434 9.60742 96.5449V86.3418C9.60742 82.5391 11.9219 79.3047 15.5195 78.0762L32.7539 72.1797L50.293 73.9355L67.2461 72.1797Z" fill="#D23C69"/>
<path fill-rule="evenodd" clip-rule="evenodd" d="M67.2461 72.1797L67.3907 85.9805C67.4024 86.8047 66.8809 87.5078 66.0899 87.7402L64.3125 88.2598C63.2325 88.5801 62.7012 89.7773 63.1895 90.7891L63.4493 91.332C63.8809 92.2285 63.5098 93.3086 62.6192 93.7461L50 100L37.3887 93.75C36.4981 93.3125 36.127 92.2324 36.5586 91.3359L36.8184 90.793C37.3047 89.7793 36.7735 88.584 35.6954 88.2637L33.918 87.7441C33.127 87.5117 32.6055 86.8086 32.6114 85.9844L32.7559 72.1836L50.002 73.7734L67.2461 72.1797Z" fill="white"/>
<path fill-rule="evenodd" clip-rule="evenodd" d="M50 100L67.2461 72.1797L50 73.7695L32.7539 72.1797L50 100Z" fill="#1BADDE"/>
<path fill-rule="evenodd" clip-rule="evenodd" d="M47.2148 0H52.7891C65.1367 0 75.2344 10.0977 75.2344 22.4434V32.0762C75.2344 39.123 69.4707 44.8867 62.4238 44.8867H37.582C30.5352 44.8867 24.7715 39.123 24.7715 32.0762V22.4434C24.7715 10.0977 34.8691 0 47.2148 0Z" fill="#3A3847"/>
<path fill-rule="evenodd" clip-rule="evenodd" d="M26.6973 34.2029H28.4746C30.1523 34.2029 31.3418 32.824 31.5195 31.158V26.3904C31.5195 25.1502 32.7207 24.281 33.9004 24.6638C39.5371 26.5017 48.7266 27.1716 56.4375 18.0037C57.123 17.1892 58.3418 17.1287 59.0996 17.8826C61.0703 19.8259 64.5801 22.1404 67.248 23.0525C67.9961 23.3064 68.4766 23.9822 68.4766 24.7693V31.158C68.4766 32.8357 69.8438 34.2029 71.5215 34.2029H73.3047C75.7012 34.2029 77.668 36.1677 77.668 38.5701C77.668 40.9724 75.7031 42.9373 73.3047 42.9373H71.3887C70.7559 54.1599 61.377 63.1404 50 63.1404C38.6953 63.1404 29.25 54.2263 28.6133 42.9392H26.6973C24.2949 42.9392 22.3301 40.9744 22.3301 38.572C22.3301 36.1677 24.2949 34.2029 26.6973 34.2029Z" fill="#FED9A8"/>
<path fill-rule="evenodd" clip-rule="evenodd" d="M50 100L45.0957 92.084L46.752 84.0352C46.2266 83.6582 45.8379 83.0879 45.6621 82.4082L43.3926 73.7109L50 73.7695L56.6094 73.709L54.3398 82.4062C54.1621 83.0879 53.7754 83.6582 53.25 84.0332L54.9102 92.082L50 100Z" fill="#B41B49"/>
<path d="M70.3613 95.8535C69.4707 95.8535 68.7441 95.1328 68.7441 94.2422C68.7441 93.3516 69.4687 92.625 70.3613 92.625H79.0586C79.9492 92.625 80.6758 93.3496 80.6758 94.2422C80.6758 95.1328 79.9512 95.8535 79.0586 95.8535H70.3613Z" fill="white"/>
<path fill-rule="evenodd" clip-rule="evenodd" d="M32.7539 72.1798L38.0625 81.1759C38.6719 82.211 39.9844 82.4278 40.8691 81.6622L50 73.7696L38.0078 66.7227C36.8945 66.0684 35.5 66.5118 34.9238 67.7091L32.7539 72.1798Z" fill="#691931"/>
<path fill-rule="evenodd" clip-rule="evenodd" d="M67.2461 72.1798L61.9434 81.1759C61.334 82.211 60.0215 82.4278 59.1367 81.6622L50 73.7696L61.9922 66.7227C63.1113 66.0684 64.5 66.5118 65.082 67.7091L67.2461 72.1798Z" fill="#691931"/>
<path fill-rule="evenodd" clip-rule="evenodd" d="M31.5195 26.3906C31.5195 25.1504 32.7207 24.2812 33.9004 24.6641C34.2773 24.7852 34.6641 24.9023 35.0684 25.0137V3.59375C28.8848 7.60156 24.7715 14.5664 24.7715 22.4453V32.0781C24.7715 32.9199 24.8555 33.75 25.0098 34.5469C25.5293 34.3262 26.0996 34.2031 26.6992 34.2031H28.4766C30.1543 34.2031 31.3437 32.8242 31.5215 31.1582V26.3906H31.5195Z" fill="#4D4A5B"/>
<path fill-rule="evenodd" clip-rule="evenodd" d="M31.5195 31.1581C31.3418 32.8241 30.1523 34.203 28.4746 34.203H26.6973C26.0996 34.203 25.5293 34.3241 25.0078 34.5468C23.4414 35.2109 22.3281 36.7675 22.3281 38.5722C22.3281 40.9745 24.293 42.9394 26.6953 42.9394H28.6113C29.0039 49.8593 32.709 55.8944 38.1172 59.5194C41.5332 61.8105 45.625 63.1405 49.998 63.1405C50.1816 63.1405 50.3633 63.1405 50.541 63.1347C45.459 62.9843 40.9473 60.4277 38.1289 56.5624C36.207 53.9277 35.0684 50.6894 35.0684 47.2011V44.6386V25.0116C34.6641 24.9003 34.2773 24.7851 33.9004 24.662C32.7207 24.2792 31.5195 25.1484 31.5195 26.3886V31.1581Z" fill="#F4CFA2"/>
<path fill-rule="evenodd" clip-rule="evenodd" d="M13.75 88.3574C13.75 84.5547 16.0586 81.3262 19.6563 80.0918L32.7207 75.625L32.7539 72.1816L15.5195 78.0781C11.9219 79.3066 9.60742 82.541 9.60742 86.3437V96.5469C9.60742 98.4453 11.1621 100.002 13.0625 100.002H14.0586C13.8594 99.5586 13.748 99.0781 13.748 98.5625V88.3574H13.75Z" fill="#B41B49"/>
</g>
<defs>
<clipPath id="clip0_140_2722">
<rect width="100" height="100" fill="white"/>
</clipPath>
</defs>
</svg>
