<svg width="50" height="50" viewBox="0 0 50 50" fill="none" xmlns="http://www.w3.org/2000/svg">
<g opacity="0.5">
<path d="M38.2812 42.4102C44.743 42.4102 50 37.1531 50 30.6914C50 24.7921 45.6183 19.8969 39.9385 19.0895C40.3946 15.7844 41.6551 12.6376 43.6243 9.91397C44.0088 9.38232 43.9928 8.65986 43.5853 8.1458C43.1778 7.63164 42.4781 7.45117 41.8727 7.7041C37.3942 9.57491 33.5815 12.6934 30.8468 16.7224C28.044 20.8517 26.5626 25.6821 26.5626 30.6915C26.5625 37.1532 31.8195 42.4102 38.2812 42.4102ZM38.6405 12.8381C37.6908 15.0961 37.0996 17.4971 36.8963 19.9595C36.5662 20.9174 37.2857 21.9665 38.412 21.9032C43.1981 21.9736 47.0703 25.889 47.0703 30.6914C47.0703 35.5377 43.1275 39.4805 38.2812 39.4805C33.435 39.4805 29.4922 35.5377 29.4922 30.6914C29.4922 23.4935 32.9653 16.9061 38.6405 12.8381ZM11.7188 42.4102C18.1805 42.4102 23.4375 37.1531 23.4375 30.6914C23.4375 24.7921 19.0558 19.8969 13.376 19.0895C13.8321 15.7844 15.0926 12.6376 17.0618 9.91397C17.4463 9.38232 17.4303 8.65986 17.0228 8.1458C16.6153 7.63164 15.9156 7.45117 15.3102 7.7041C10.8317 9.57491 7.01904 12.6934 4.28428 16.7224C1.48154 20.8517 9.91821e-05 25.6821 9.91821e-05 30.6915C0 37.1532 5.25703 42.4102 11.7188 42.4102ZM12.078 12.8381C11.1283 15.0961 10.5371 17.4971 10.3338 19.9595C10.0032 20.9186 10.7241 21.9664 11.8495 21.9032C16.6356 21.9735 20.5078 25.8888 20.5078 30.6913C20.5078 35.5376 16.565 39.4804 11.7188 39.4804C6.87246 39.4804 2.92969 35.5376 2.92969 30.6913C2.92969 23.4935 6.40283 16.9061 12.078 12.8381Z" fill="#780001"/>
</g>
</svg>
