<svg width="70" height="70" viewBox="0 0 70 70" fill="none" xmlns="http://www.w3.org/2000/svg">
<g clip-path="url(#clip0_140_3013)">
<path d="M66.1753 27.6559L62.237 31.5934L54.1386 39.6959L44.1499 49.6826L44.1324 49.7059C44.1091 49.7234 44.0915 49.7467 44.0682 49.7584C43.654 50.1434 43.123 50.3826 42.5512 50.4176L36.6 50.8492C35.6956 50.9134 34.9546 50.1667 35.013 49.2684L35.4447 43.3126C35.4856 42.7467 35.719 42.2159 36.1099 41.8017C36.1274 41.7784 36.1449 41.7609 36.1682 41.7376L36.1857 41.72L52.0032 25.9001L54.267 23.6367L58.2112 19.6992L66.1753 27.6559Z" fill="#EA3883"/>
<path d="M68.7836 19.1801L66.6949 17.0917C65.0729 15.4701 62.4415 15.4701 60.8195 17.0917L58.2114 19.6992L66.1756 27.6617L68.7836 25.0542C70.4056 23.4326 70.4056 20.8017 68.7836 19.1801Z" fill="#A223C1"/>
<path d="M35.4449 43.3125L35.0131 49.2683C34.9548 50.1667 35.6958 50.9133 36.6001 50.8492L42.5514 50.4175C43.1231 50.3825 43.6541 50.1433 44.0683 49.7583C44.0917 49.7467 44.1092 49.7233 44.1325 49.7058L44.15 49.6825L54.1388 39.6958V65.1992C54.1388 67.8533 51.9917 70 49.3369 70H4.80183C2.14711 70 0 67.8533 0 65.1992V16.1875L15.8758 0H49.3369C51.9917 0 54.1388 2.14667 54.1388 4.80083V23.765L52.0033 25.9L36.1859 41.72L36.1684 41.7375C36.145 41.7608 36.1275 41.7783 36.11 41.8017C35.7191 42.2158 35.4857 42.7467 35.4449 43.3125Z" fill="#FECD1A"/>
<path d="M11.0798 15.8725H0L15.8758 0V11.0775C15.8758 13.7258 13.7287 15.8725 11.0798 15.8725Z" fill="#FF9B2E"/>
<path d="M44.1503 49.6823L44.127 49.7056C44.1037 49.7231 44.0862 49.7464 44.0628 49.7639C43.6486 50.1489 43.1176 50.3823 42.5517 50.4231L36.5946 50.8548C35.6961 50.9189 34.9493 50.1723 35.0076 49.2739L35.4452 43.3181C35.486 42.7523 35.7194 42.2156 36.1103 41.8073C36.1278 41.7839 36.1453 41.7664 36.1687 41.7431L36.1862 41.7256L44.1503 49.6823Z" fill="#FFFCEE"/>
<path d="M45.0487 14.8516H20.917C20.3511 14.8516 19.896 15.3066 19.896 15.8724C19.896 16.4382 20.3511 16.8932 20.917 16.8932H45.0487C45.6147 16.8932 46.0698 16.4382 46.0698 15.8724C46.0698 15.3066 45.6147 14.8516 45.0487 14.8516Z" fill="#FFFCEE"/>
<path d="M38.2048 28.3091H12.7603C12.1944 28.3091 11.7393 28.7641 11.7393 29.3299C11.7393 29.8957 12.1944 30.3507 12.7603 30.3507H38.2048C38.7707 30.3507 39.2258 29.8957 39.2258 29.3299C39.2258 28.7641 38.7707 28.3091 38.2048 28.3091Z" fill="#FFFCEE"/>
<path d="M12.7603 43.8083H25.4855C26.0514 43.8083 26.5065 43.3533 26.5065 42.7874C26.5065 42.2216 26.0514 41.7666 25.4855 41.7666H12.7603C12.1944 41.7666 11.7393 42.2216 11.7393 42.7874C11.7393 43.3533 12.1944 43.8083 12.7603 43.8083Z" fill="#FFFCEE"/>
<path d="M38.2048 55.23H12.7603C12.1944 55.23 11.7393 55.685 11.7393 56.2508C11.7393 56.8166 12.1944 57.2716 12.7603 57.2716H38.2048C38.7707 57.2716 39.2258 56.8166 39.2258 56.2508C39.2258 55.685 38.7707 55.23 38.2048 55.23Z" fill="#FFFCEE"/>
</g>
<defs>
<clipPath id="clip0_140_3013">
<rect width="70" height="70" fill="white"/>
</clipPath>
</defs>
</svg>
