<svg width="70" height="70" viewBox="0 0 70 70" fill="none" xmlns="http://www.w3.org/2000/svg">
<g clip-path="url(#clip0_140_3043)">
<path d="M69.9986 28.2612L36.228 48.9825L21.6494 35.3338L69.9986 28.2612Z" fill="#F06392"/>
<path d="M69.9985 28.2611C69.9985 28.2611 -0.429024 15.2725 0.00394127 15.2725C0.436906 15.2725 12.271 27.5395 12.271 27.5395L69.9985 28.2611Z" fill="#F06392"/>
<path d="M12.271 27.5396V54.7253L21.6493 35.3337L69.9985 28.2611L12.271 27.5396Z" fill="#EC417A"/>
<path d="M12.271 54.7251L32.6638 45.6454L21.6493 35.3335L12.271 54.7251Z" fill="#D81B61"/>
<path d="M57.9908 2.0711C55.068 -0.851755 50.2226 -0.680179 47.5254 2.58567C45.1743 5.43258 45.597 9.67285 48.2079 12.2837L56.2841 20.3599C57.2267 21.3025 58.7549 21.3025 59.6975 20.3599L67.7738 12.2837C70.3846 9.6728 70.8074 5.43246 68.4561 2.58556C65.7589 -0.680228 60.9136 -0.85167 57.9908 2.0711Z" fill="#D32E2E"/>
<path d="M63.2282 16.8238L59.6922 20.3598C58.7508 21.3011 57.2302 21.3011 56.2889 20.3598L48.2031 12.2861C45.5963 9.66726 45.1739 5.43126 47.5272 2.58313C48.9634 0.845288 51.0271 -0.0236706 53.0787 0.000490264C53.5252 4.63471 55.4682 12.5757 63.2282 16.8238Z" fill="#B72025"/>
<path d="M47.2616 54.7239C44.9116 52.3739 41.0157 52.5118 38.8472 55.1377C36.9568 57.4267 37.2967 60.8359 39.3959 62.9351L45.8894 69.4287C46.6473 70.1865 47.876 70.1865 48.6339 69.4287L55.1274 62.9351C57.2266 60.8359 57.5665 57.4266 55.676 55.1376C53.5074 52.5118 49.6116 52.3739 47.2616 54.7239Z" fill="#D32E2E"/>
<path d="M51.6546 66.4127L48.6375 69.4297C47.8772 70.1901 46.6462 70.1901 45.8859 69.4297L39.3931 62.937C37.2933 60.8371 36.9553 57.4217 38.8501 55.1408C39.7552 54.0305 40.9862 53.3668 42.2654 53.1616C43.3154 56.9993 45.8376 63.1301 51.6546 66.4127Z" fill="#B72025"/>
</g>
<defs>
<clipPath id="clip0_140_3043">
<rect width="70" height="70" fill="white"/>
</clipPath>
</defs>
</svg>
