<svg width="70" height="70" viewBox="0 0 70 70" fill="none" xmlns="http://www.w3.org/2000/svg">
<path d="M45.8672 33.7007H43.3671L43.2134 33.8653V35.3378C43.2134 36.6534 42.4374 37.4025 41.2678 38.0055C39.6625 38.8332 39.1801 43.5298 42.1983 45.0617L43.0559 45.1912L49.0594 42.8673V39.4634L45.8672 33.7007Z" fill="#4D4A5B"/>
<path d="M45.4228 38.0054C46.3155 37.5452 46.9775 36.999 47.2416 36.1817L45.8672 33.7007H43.3671L43.2135 33.8653V35.3378C43.2135 36.6534 42.4374 37.4025 41.2678 38.0055C39.6625 38.8332 39.1801 43.5298 42.1983 45.0617L43.0559 45.1912L45.3394 44.3072C43.4831 42.3592 44.0287 38.7241 45.4228 38.0054Z" fill="#4D4A5B"/>
<path d="M63.7325 38.0054C62.5597 37.4007 61.7872 36.6515 61.7872 35.3382V33.8421L61.5421 33.6104H58.9197L55.9082 39.6984V42.7794L62.1054 45.1914L62.6818 45.0168C65.6375 43.4434 65.3222 38.8251 63.7325 38.0054Z" fill="#3A3847"/>
<path d="M26.1399 29.0851H25.6039L25.3621 28.8535H23.936V33.6082L24.3521 33.8265H26.1397C27.3834 33.8265 28.3916 32.765 28.3916 31.4558C28.3918 30.1465 27.3837 29.0851 26.1399 29.0851Z" fill="#FED9A8"/>
<path d="M8.85598 29.0853C7.61416 29.0874 6.60791 30.1478 6.60791 31.4558C6.60791 32.7652 7.61607 33.8265 8.8598 33.8265H10.6475L10.9382 33.29V28.8535H9.27078L8.85598 29.0853Z" fill="#F4CFA2"/>
<path d="M26.2871 29.0929C26.2383 29.0896 26.1899 29.0851 26.1404 29.0851H25.6044L25.3626 28.8535H23.9365V33.6082L24.3526 33.8265H26.1402C26.1897 33.8265 26.2382 33.822 26.2869 33.8187V29.0929H26.2871Z" fill="#FED9A8"/>
<path d="M8.95838 31.4558C8.95838 30.2437 9.82299 29.2458 10.9381 29.1041V28.8535H9.27078L8.85598 29.0853C7.61416 29.0874 6.60791 30.1478 6.60791 31.4558C6.60791 32.7652 7.61607 33.8265 8.8598 33.8265H10.6475L10.6842 33.7588C9.69475 33.5091 8.95838 32.574 8.95838 31.4558Z" fill="#F4CFA2"/>
<path d="M66.2959 46.4163C65.9739 46.2916 61.6499 44.617 58.9195 43.5596L58.2613 43.8513H46.8763L46.063 43.5634C43.3441 44.6175 38.7797 46.3871 38.7043 46.4163C37.1206 47.068 35 49.1188 35 52.1619V59.0175H40.7073V70.0002H64.2927V59.0175H70C70 55.6953 70 52.6838 70 52.1619C70 49.5412 68.3221 47.2503 66.2959 46.4163Z" fill="#FF7F87"/>
<path d="M39.7962 49.6746C39.7962 47.5409 40.9263 46.0611 42.1165 45.0933C40.2946 45.7996 38.7479 46.3992 38.7043 46.4162C37.1206 47.0679 35 49.1187 35 52.1618V59.0174H39.7962C39.7962 55.1484 39.7962 51.4362 39.7962 49.6746Z" fill="#FF636E"/>
<path d="M31.2959 46.4165C30.9775 46.2931 26.7462 44.6544 24.0118 43.5955L23.4493 43.8652H11.4892L10.9819 43.5742L3.70426 46.4166C2.12064 47.0682 0 49.119 0 52.1621V59.0177H5.70732V70.0003H29.2927V59.0177H35C35 55.6954 35 52.6838 35 52.1621C35 49.5413 33.3221 47.2504 31.2959 46.4165Z" fill="#80B4FB"/>
<path d="M4.79186 49.6749C4.79186 47.5294 5.93469 46.0452 7.13221 45.0776L3.70426 46.4164C2.12064 47.0683 0 49.119 0 52.1621V59.0178H4.79186C4.79186 55.1487 4.79186 51.4366 4.79186 49.6749Z" fill="#61A2F9"/>
<path d="M61.7751 29.5499L61.5683 29.3418H59.0991V33.6684L59.2354 33.95H61.0992C62.3429 33.95 63.3511 32.9419 63.3511 31.6981C63.3509 30.6901 62.6884 29.837 61.7751 29.5499Z" fill="#FED9A8"/>
<path d="M43.2133 29.5286L43.2137 29.5308C42.2643 29.7955 41.5669 30.6644 41.5669 31.6981C41.5669 32.9418 42.5751 33.95 43.8188 33.95H45.7646L45.9784 33.7006V29.3286H43.3728L43.2133 29.5286Z" fill="#F4CFA2"/>
<path d="M61.3049 29.3418H59.0991V33.6684L59.2354 33.95H61.0992C61.1686 33.95 61.2371 33.9458 61.3049 33.9396V29.3418Z" fill="#FED9A8"/>
<path d="M43.7727 31.6982C43.7727 30.6645 44.4701 29.7956 45.4195 29.531L45.4191 29.5288L45.5786 29.3286H43.3728L43.2133 29.5288L43.2137 29.531C42.2643 29.7956 41.5669 30.6645 41.5669 31.6982C41.5669 32.942 42.5751 33.9501 43.8188 33.9501H45.7646L45.7769 33.9358C44.6499 33.8124 43.7727 32.8581 43.7727 31.6982Z" fill="#F4CFA2"/>
<path d="M5.70732 58.8765H0V68.7656C0 69.4473 0.552754 70 1.23443 70H5.70732V58.8765Z" fill="#FED9A8"/>
<path d="M29.2925 58.8765V70H33.7654C34.4472 70 34.9998 69.4473 34.9998 68.7656C34.9998 68.1826 34.9998 63.2341 34.9998 58.8765H29.2925Z" fill="#FED9A8"/>
<path d="M40.7073 58.8765H35V68.7656C35 69.4473 35.5528 70 36.2344 70H40.7073C40.7073 66.3855 40.7073 62.558 40.7073 58.8765Z" fill="#FED9A8"/>
<path d="M64.2925 58.8765V70H68.7654C69.4472 70 69.9998 69.4473 69.9998 68.7656C69.9998 68.1826 69.9998 63.2341 69.9998 58.8765H64.2925Z" fill="#FED9A8"/>
<path d="M21.7249 42.7097C21.4624 42.6083 21.2879 42.3556 21.2872 42.0728L21.2853 39.8216L20.8201 39.3462H14.13L13.7085 39.8114V42.0687C13.7085 42.3507 13.5729 42.517 13.4168 42.6231L10.9819 43.5741C11.8344 46.1901 14.2655 48.2359 17.5978 48.2359C20.584 48.2359 23.1221 46.2873 24.0118 43.5954C22.7883 43.1215 21.8642 42.7636 21.7249 42.7097Z" fill="#FED9A8"/>
<path d="M17.4969 39.3462H14.13L13.7085 39.8114V42.0687C13.7085 42.3507 13.5729 42.517 13.4168 42.6231L10.9819 43.5741C11.8258 46.1635 14.2167 48.193 17.4969 48.234V39.3462Z" fill="#F4CFA2"/>
<path d="M56.725 42.7096C56.4625 42.6082 56.288 42.3555 56.2872 42.0727L56.2853 39.778L55.9843 39.4634H49.0595L48.7086 39.7915V42.0684C48.7086 42.5926 48.2412 42.7188 48.0417 42.796C47.9974 42.8133 47.1879 43.127 46.063 43.5632C46.8704 46.1716 49.2671 48.2279 52.569 48.2389C55.5319 48.2489 58.0584 46.2584 58.9193 43.5595C57.7422 43.1035 56.8608 42.7623 56.725 42.7096Z" fill="#FED9A8"/>
<path d="M52.5001 39.4634H49.0595L48.7086 39.7915V42.0684C48.7086 42.5926 48.2412 42.7188 48.0417 42.796C47.9974 42.8133 47.1879 43.127 46.063 43.5632C46.8648 46.1534 49.234 48.1979 52.5001 48.2373V39.4634Z" fill="#F4CFA2"/>
<path d="M6.76346 70.0001V52.817C6.76346 52.2336 6.29055 51.7607 5.70717 51.7607C5.12379 51.7607 4.65088 52.2336 4.65088 52.817V70.0001H6.76346Z" fill="#61A2F9"/>
<path d="M30.3489 70.0001V52.817C30.3489 52.2336 29.876 51.7607 29.2926 51.7607C28.7092 51.7607 28.2363 52.2336 28.2363 52.817V70.0001H30.3489Z" fill="#61A2F9"/>
<path d="M41.7635 70.0001V52.817C41.7635 52.2336 41.2905 51.7607 40.7072 51.7607C40.1238 51.7607 39.6509 52.2336 39.6509 52.817V70.0001H41.7635Z" fill="#FF636E"/>
<path d="M65.3489 70.0001V52.817C65.3489 52.2336 64.876 51.7607 64.2926 51.7607C63.7092 51.7607 63.2363 52.2336 63.2363 52.817V70.0001H65.3489Z" fill="#FF636E"/>
<path d="M24.0119 28.5009L23.4495 28.1254L23.0269 26.2944H22.2053L18.778 28.7827H15.7425L15.4868 29.1955V34.151C15.4868 36.9072 17.1361 39.4797 19.8196 40.5442C22.4556 39.6231 24.3526 37.113 24.3526 34.1668V29.269L24.0119 28.5009Z" fill="#FED9A8"/>
<path d="M15.5878 34.1667V29.3225L15.9222 28.7827H10.9819L10.6475 29.3225V34.1667C10.6475 37.6969 13.4136 40.9213 17.5977 40.9213C18.4403 40.9213 19.2468 40.7649 19.9914 40.4817C17.2686 39.4838 15.5878 36.9184 15.5878 34.1667Z" fill="#F4CFA2"/>
<path d="M23.9137 20.4312C23.2683 20.4808 22.6761 20.075 22.5518 19.4397C22.3426 18.3699 21.8128 17.3081 19.7439 17.3081H12.5653C9.93074 17.3081 7.79492 19.4439 7.79492 22.0785V27.314C7.79492 28.4233 8.69426 29.3225 9.80346 29.3225H17.9509C19.7733 29.3225 21.3561 28.3002 22.1591 26.7982C22.2213 26.6817 22.3981 26.7272 22.3981 26.8593C22.3981 28.2142 23.5066 29.3227 24.8615 29.3227C25.5716 29.3227 26.1527 28.7416 26.1527 28.0315V22.5681C26.1527 21.2809 25.0298 20.3453 23.9137 20.4312Z" fill="#3A3847"/>
<path d="M11.8441 27.314V22.0785C11.8441 19.4438 13.9799 17.3081 16.6145 17.3081H12.5653C9.93074 17.3081 7.79492 19.4439 7.79492 22.0785V27.314C7.79492 28.4233 8.69426 29.3225 9.80359 29.3225H13.8529C12.7435 29.3227 11.8441 28.4233 11.8441 27.314Z" fill="#4D4A5B"/>
<path d="M58.5431 28.8766H55.5854L53.2614 25.9893H51.8764L49.7222 28.323V34.2767C49.7222 37.0889 51.451 39.7097 54.2477 40.7103C57.1084 39.9573 59.2355 37.3071 59.2355 34.22V29.4462L58.5431 28.8766Z" fill="#FED9A8"/>
<path d="M49.8802 34.2853V28.1519L49.0594 29.0409H46.063L45.7646 29.4462V34.2852C45.7646 37.7465 48.4703 40.9107 52.5691 40.9245C53.2674 40.9269 53.941 40.8175 54.5748 40.6146C51.6833 39.737 49.8802 37.1105 49.8802 34.2853Z" fill="#F4CFA2"/>
<path d="M52.3776 17.3089C47.2739 17.3745 43.2134 21.6288 43.2134 26.7331V29.531C43.4063 29.4771 43.6088 29.4462 43.8189 29.4462H45.7647H47.5256C47.7553 29.4462 49.0472 29.3411 48.9523 29.3483C50.587 29.2231 52.0006 27.9883 52.3901 26.3835C52.4025 26.3322 52.4475 26.2957 52.5001 26.2957C52.5529 26.2957 52.5979 26.3322 52.6103 26.3835C52.9996 27.9844 54.4002 29.2051 56.0108 29.3415C57.1806 29.4408 57.1964 29.4461 57.4075 29.4461H59.2353H61.0991C61.3391 29.4461 61.5701 29.4845 61.787 29.554V26.5947C61.787 21.4252 57.5631 17.2422 52.3776 17.3089Z" fill="#3A3847"/>
<path d="M47.3683 26.733C47.3683 22.2988 50.4335 18.5078 54.5841 17.5454C53.8758 17.383 53.1375 17.299 52.3776 17.3089C47.2739 17.3745 43.2134 21.6288 43.2134 26.733V29.531C43.4063 29.4771 43.6088 29.4462 43.8189 29.4462H45.7647H47.3683V26.733Z" fill="#4D4A5B"/>
<mask id="mask0_140_3093" style="mask-type:luminance" maskUnits="userSpaceOnUse" x="24" y="0" width="22" height="22">
<path d="M24.1992 3.8147e-06H45.8008V21.7383H24.1992V3.8147e-06Z" fill="white"/>
</mask>
<g mask="url(#mask0_140_3093)">
<path d="M45.3787 14.0957C45.3787 10.3552 42.5511 7.27913 38.9299 6.91399H38.9295L31.0698 14.8235V14.8238C31.4327 18.468 34.4894 21.3135 38.2064 21.3135C39.3961 21.3135 40.5184 21.0218 41.5061 20.5059C42.0951 21.0095 42.8579 21.3135 43.6911 21.3135C44.1248 21.3135 44.5392 21.2312 44.9201 21.0812C44.3122 20.3658 43.9047 19.5477 43.7548 18.6696C44.7696 17.4248 45.3787 15.8318 45.3787 14.0957Z" fill="#FF636E"/>
<path d="M34.4092 16.643C34.6421 16.643 34.8311 16.8332 34.8311 17.0676C34.8311 17.302 34.6421 17.4922 34.4092 17.4922C34.1763 17.4922 33.9873 17.302 33.9873 17.0676C33.9873 16.8332 34.1763 16.643 34.4092 16.643Z" fill="#365E7D"/>
<path fill-rule="evenodd" clip-rule="evenodd" d="M37.1099 11.9729C37.1099 12.2074 37.2988 12.3975 37.5318 12.3975H41.1597C41.3927 12.3975 41.5816 12.2074 41.5816 11.9729C41.5816 11.7384 41.3927 11.5483 41.1597 11.5483H37.5318C37.2988 11.5483 37.1099 11.7384 37.1099 11.9729Z" fill="#365E7D"/>
<path fill-rule="evenodd" clip-rule="evenodd" d="M33.5527 14.5202C33.5527 14.7547 33.7416 14.9448 33.9746 14.9448H41.1601C41.3931 14.9448 41.582 14.7547 41.582 14.5202C41.582 14.2858 41.3931 14.0957 41.1601 14.0957H33.9746C33.7416 14.0957 33.5527 14.2858 33.5527 14.5202Z" fill="#365E7D"/>
<path fill-rule="evenodd" clip-rule="evenodd" d="M35.6753 17.0676C35.6753 17.3021 35.8642 17.4922 36.0972 17.4922H41.1601C41.3931 17.4922 41.582 17.3021 41.582 17.0676C41.582 16.8331 41.3931 16.643 41.1601 16.643H36.0972C35.8642 16.643 35.6753 16.8331 35.6753 17.0676Z" fill="#365E7D"/>
<path d="M38.9613 6.91414C39.4142 11.4237 35.655 15.2866 31.1017 14.8236C30.1802 14.731 29.3102 14.4627 28.5255 14.0526C27.9365 14.5561 27.1737 14.8601 26.3405 14.8601C25.9067 14.8601 25.4925 14.7777 25.1114 14.6279C25.7195 13.9124 26.127 13.0943 26.2768 12.2163C25.2621 10.9714 24.6528 9.37838 24.6528 7.64229C24.6528 3.65599 27.864 0.424503 31.8252 0.424503C35.5422 0.424503 38.5989 3.26958 38.9613 6.91414Z" fill="#FFB1A0"/>
<path d="M33.4814 4.67032C34.6644 4.67032 35.5909 5.67274 35.5909 6.95241C35.5909 8.6159 33.945 9.65569 31.7942 11.5068C29.6133 9.62384 27.9966 8.57769 27.9966 6.95241C27.9966 5.67274 28.9231 4.67032 30.1061 4.67032C31.1254 4.67032 31.6132 5.41163 31.7937 5.54876C31.9933 5.39719 32.4435 4.67032 33.4814 4.67032Z" fill="#FF636E"/>
</g>
</svg>
