<svg width="100" height="100" viewBox="0 0 100 100" fill="none" xmlns="http://www.w3.org/2000/svg">
<g clip-path="url(#clip0_140_2739)">
<path d="M83.1897 89.8147V98.2759C83.1897 99.2284 82.4182 100 81.4656 100H18.5345C17.582 100 16.8104 99.2284 16.8104 98.2759V89.8147C16.8104 83.3082 20.6789 77.7026 26.2414 75.1746C23.9718 73.3687 20.5126 70.9416 17.9957 65.7198C14.4904 58.4573 15.0904 49.8897 19.5561 43.1832C21.9828 39.5409 23.2759 35.2651 23.2759 30.8901V21.5517C23.2759 9.64871 32.9246 0 44.8276 0H55.1725C67.0755 0 76.7242 9.64871 76.7242 21.5517C76.7242 31.4412 76.4826 33.3778 77.6746 37.3103C79.3567 42.8709 81.5785 43.5588 83.291 49.2177C85.983 58.1129 83.0052 67.814 75.6682 73.6552L73.7587 75.1746C79.3212 77.7026 83.1897 83.3082 83.1897 89.8147Z" fill="#FED9A8"/>
<path d="M83.1899 89.8145V98.2757C83.1899 99.2279 82.4179 99.9999 81.4657 99.9999H18.5347C17.5825 99.9999 16.8105 99.2279 16.8105 98.2757V89.8145C16.8105 80.9434 24.0021 73.7434 32.8817 73.7434C34.2028 73.7434 35.4571 73.4568 36.5843 72.9438L36.6381 73.0602L48.9448 82.5878C49.5661 83.0689 50.4343 83.0689 51.0558 82.5878L63.3623 73.0602L63.4161 72.9438C64.5433 73.4568 65.7976 73.7434 67.1187 73.7434C75.9638 73.7434 83.1899 80.9091 83.1899 89.8145Z" fill="#1BADDE"/>
<path d="M69.7046 31.521C70.6199 31.5731 71.3365 32.3253 71.3365 33.2421V43.5624C71.3365 52.4568 65.8947 60.0796 58.1576 63.2822C44.1669 69.0897 28.6641 58.7727 28.6641 43.5624V33.3921C28.6641 32.3815 29.5296 31.583 30.536 31.6742C40.8781 32.6119 51.0623 30.0003 59.6143 24.2391C60.5869 23.5839 61.9261 24.0692 62.2332 25.2011C63.297 29.1223 66.1985 31.3212 69.7046 31.521Z" fill="#FED9A8"/>
<path d="M75.6682 73.6552L73.7587 75.1746C71.735 74.2565 69.4871 73.7435 67.1186 73.7435C62.1985 73.7435 58.1897 69.7705 58.1897 64.834V63.3621L58.1574 63.2823C65.8944 60.0797 71.3363 52.4569 71.3363 43.5625V33.2422C71.3363 32.3254 70.6197 31.5733 69.7044 31.5211C66.2199 31.3226 63.3037 29.1476 62.233 25.2015C61.9259 24.0696 60.5867 23.5843 59.6141 24.2394C51.0677 29.9968 40.8841 32.6127 30.5358 31.6746C29.5294 31.5834 28.6638 32.3819 28.6638 33.3925V43.5627C28.6638 52.4571 34.1057 60.08 41.8427 63.2825L41.8104 63.3623V64.8343C41.8104 69.7698 37.8026 73.7437 32.8815 73.7437C30.513 73.7437 28.2651 74.2567 26.2414 75.1748L24.3319 73.6554C15.0623 66.2692 12.9983 53.0315 19.5561 43.1834C21.9828 39.5412 23.2759 35.2653 23.2759 30.8903V21.5517C23.2759 9.64914 32.9251 0 44.8276 0H55.1725C67.0751 0 76.7242 9.64914 76.7242 21.5517V30.8901C76.7242 35.2599 78.0173 39.5409 80.444 43.1832C87.0257 53.0672 84.9026 66.3034 75.6682 73.6552Z" fill="#42434D"/>
<path d="M58.4333 66.9008C53.1236 69.1234 47.2884 69.2958 41.5669 66.9008C41.8591 65.6883 41.8104 64.9029 41.8104 63.362L41.8428 63.2822C47.0328 65.4365 52.9572 65.4408 58.1574 63.2822L58.1897 63.362C58.1897 64.9036 58.141 65.6887 58.4333 66.9008Z" fill="#F4CFA2"/>
<path d="M64.9088 2.3194C67.1096 3.43578 66.1532 6.79504 63.6963 6.5625C63.0189 6.49828 62.3323 6.46552 61.6381 6.46552H51.2933C39.3907 6.46552 29.7415 16.1147 29.7415 28.0172V30.6397C29.7415 32.1879 28.664 32.1379 28.664 33.3922C28.664 44.7763 28.7101 44.0556 28.543 44.5468C26.8523 49.5205 24.8219 50.2403 23.1747 55.6832C22.2775 58.6478 22.0124 61.7009 22.3232 64.6636C22.5769 67.0817 19.2099 68.2384 17.9958 65.7198C14.5155 58.5093 15.0605 49.9347 19.5562 43.1832C21.9829 39.5409 23.276 35.2651 23.276 30.8901V21.5517C23.276 9.64914 32.9252 0 44.8277 0H55.1726C58.6762 0 61.9844 0.835991 64.9088 2.3194Z" fill="#4D4E59"/>
<path d="M45.91 57.8555C49.1296 60.0107 46.6757 64.9956 43.0199 63.7126C34.9841 60.8928 28.6641 53.393 28.6641 43.5624V33.3922C28.6641 32.3814 29.5304 31.584 30.5369 31.6745C31.3628 31.7495 32.2697 31.8085 33.2483 31.8385C35.0197 31.8924 36.4227 33.3551 36.4227 35.1273V40.1144C36.4227 47.62 40.2494 54.0665 45.91 57.8555Z" fill="#F4CFA2"/>
<path d="M40.1927 75.8122C41.2155 76.604 40.675 78.2643 39.3814 78.2693C30.258 78.3033 23.2761 85.629 23.2761 94.3404V99.9999H18.5347C17.5825 99.9999 16.8105 99.2279 16.8105 98.2757V89.8145C16.8105 80.9432 24.0024 73.7434 32.8817 73.7434C34.2028 73.7434 35.4571 73.4568 36.5843 72.9438L36.6381 73.0602L40.1927 75.8122Z" fill="#1890B9"/>
<path d="M59.8076 75.8122C58.7848 76.604 59.3253 78.2643 60.6188 78.2693C69.7423 78.3033 76.7242 85.629 76.7242 94.3404V99.9999H81.4656C82.4177 99.9999 83.1897 99.2279 83.1897 98.2757V89.8145C83.1897 80.9432 75.9979 73.7434 67.1186 73.7434C65.7975 73.7434 64.5432 73.4568 63.416 72.9438L63.3621 73.0602L59.8076 75.8122Z" fill="#1890B9"/>
</g>
<defs>
<clipPath id="clip0_140_2739">
<rect width="100" height="100" fill="white"/>
</clipPath>
</defs>
</svg>
